<?xml version="1.0" standalone="no"?>
<!DOCTYPE svg PUBLIC "-//W3C//DTD SVG 20010904//EN"
 "http://www.w3.org/TR/2001/REC-SVG-20010904/DTD/svg10.dtd">
<svg version="1.0" xmlns="http://www.w3.org/2000/svg"
 width="816.000000pt" height="816.000000pt" viewBox="0 0 816.000000 816.000000"
 preserveAspectRatio="xMidYMid meet">
<metadata>
Created by potrace 1.11, written by Peter Selinger 2001-2013
</metadata>
<g transform="translate(0.000000,816.000000) scale(0.100000,-0.100000)"
fill="#000000" stroke="none">
<path d="M19 7033 c-1 -33 -1 -150 0 -175 1 -17 196 -18 3956 -18 l3956 0 -3
-107 -3 -108 -3949 -2 c-2172 -1 -3951 -5 -3954 -7 -3 -4 -6 -554 -3 -639 1
-16 27 -17 439 -15 l437 3 1 108 2 107 -329 0 c-256 0 -329 3 -329 13 -5 119
-1 212 9 209 12 -2 54 -3 236 -1 66 1 125 0 130 -1 6 -1 15 -1 20 0 6 1 28 1
50 1 54 -1 116 -1 270 -1 72 0 137 0 145 -1 8 0 35 1 60 2 25 0 50 0 55 -1 6
-1 14 -2 18 -1 7 1 134 2 187 0 8 0 35 1 60 2 25 0 50 0 55 -1 6 -1 30 -1 55
-1 148 2 296 3 305 1 6 -1 15 -1 20 0 6 1 28 1 50 1 54 -1 116 -1 270 -1 72 0
137 0 145 -1 8 0 35 1 60 2 25 0 50 0 55 -1 6 -1 30 -1 55 -1 148 2 296 3 305
1 6 -1 15 -1 20 0 6 1 28 1 50 1 22 -1 69 -1 105 -1 55 0 137 0 183 -1 6 0 71
1 142 2 72 1 135 0 140 -1 6 -1 15 -1 20 0 6 1 28 1 50 1 60 -1 124 -2 295 -1
85 0 162 0 170 -1 8 0 80 0 160 0 80 1 152 1 160 0 8 0 69 0 135 0 66 0 127 0
135 0 8 0 35 1 60 2 25 0 50 0 55 -1 6 -1 30 -1 55 -1 148 2 296 3 305 1 6 -1
15 -1 20 0 6 1 28 1 50 1 54 -1 116 -1 270 -1 72 0 137 0 145 -1 8 0 35 1 60
2 25 0 50 0 55 -1 6 -1 14 -2 18 -1 8 1 200 2 237 1 13 -1 272 -1 323 0 9 0
23 0 30 1 6 0 41 0 77 0 36 -1 119 -1 185 0 66 1 125 0 130 -1 6 -1 15 -1 20
0 6 1 28 1 50 1 22 -1 69 -1 105 -1 55 0 137 0 183 -1 6 0 71 1 142 2 72 1
135 0 140 -1 6 -1 15 -1 20 0 6 1 28 1 50 1 54 -1 116 -1 270 -1 72 0 137 0
145 -1 8 0 35 1 60 2 25 0 50 0 55 -1 10 -2 79 -1 165 3 l45 2 3 328 2 327
-4065 0 -4065 0 -1 -27z"/>
<path d="M1119 6163 c-1 -10 -1 -58 -2 -108 l-1 -90 110 -3 110 -3 -1 108 0
108 -107 3 c-98 2 -108 1 -109 -15z"/>
<path d="M1559 6168 c-1 -7 -2 -57 -2 -111 l-2 -97 550 0 551 0 -1 110 0 110
-547 0 c-431 0 -548 -3 -549 -12z"/>
<path d="M2878 6173 c-2 -4 -4 -53 -4 -108 l1 -100 110 0 110 0 0 105 0 105
-107 3 c-58 1 -108 -1 -110 -5z"/>
<path d="M3317 6173 c-2 -5 -4 -53 -3 -108 l1 -100 2418 -3 2417 -2 0 110 0
110 -2414 0 c-1328 0 -2417 -3 -2419 -7z"/>
<path d="M48 5742 c-22 -3 -28 -9 -29 -28 0 -13 -1 -309 -1 -656 l-1 -633
1649 0 1649 0 0 658 0 657 -62 0 c-35 0 -146 0 -248 0 -102 0 -222 0 -268 0
l-82 0 0 -437 0 -438 110 -3 110 -3 0 331 c0 258 3 330 12 331 22 1 83 1 91
-1 4 -1 32 -2 62 -3 l54 -2 0 -435 1 -435 -330 0 -330 0 0 545 0 545 -65 5
c-36 3 -85 3 -110 0 l-45 -5 0 -545 0 -545 -105 -2 c-58 -1 -107 2 -110 7 -3
4 -5 252 -5 549 l1 541 -111 0 -110 0 0 -550 0 -549 -109 2 -110 2 0 548 c0
545 0 547 -20 547 -186 3 -629 0 -633 -4 -5 -4 -8 -754 -4 -853 l1 -23 218 0
218 0 0 -107 -1 -108 -327 -1 c-297 -2 -328 0 -329 15 0 9 -1 254 -1 544 -1
385 -4 530 -13 533 -13 5 -577 10 -617 6z m408 -664 l0 -436 -108 0 c-74 0
-108 4 -109 12 -1 16 -1 828 0 848 1 13 13 16 67 17 37 0 68 2 70 4 2 2 21 1
42 -2 l37 -6 1 -437z m812 441 l68 0 -1 -217 0 -217 -107 -2 c-94 -1 -108 1
-109 15 0 10 -1 107 -2 217 l0 200 34 6 c19 3 37 4 41 2 4 -2 38 -4 76 -4z"/>
<path d="M3600 5740 l-65 -5 0 -215 0 -215 110 0 110 0 0 217 0 216 -45 4
c-25 2 -74 1 -110 -2z"/>
<path d="M4060 5740 l-85 -5 0 -435 0 -435 216 -3 c250 -3 225 12 224 -127
l-1 -90 -329 -2 -330 -1 0 219 c0 120 -2 219 -5 220 -8 1 -140 1 -180 0 l-36
-1 1 -327 0 -328 548 -3 547 -2 1 22 c0 13 2 310 2 660 l2 638 -180 1 c-99 0
-209 1 -245 2 -36 1 -103 0 -150 -3z m350 -230 c4 -6 5 -395 1 -422 -1 -4 -49
-6 -108 -5 l-108 2 0 215 0 215 54 2 c30 2 56 4 58 6 6 7 98 -5 103 -13z"/>
<path d="M4979 5742 l-125 -3 0 -439 0 -439 215 -1 c118 0 216 -2 217 -3 3 -3
6 -115 5 -174 l-1 -42 -210 1 c-116 1 -214 -2 -218 -6 -4 -4 -8 -54 -9 -111
l-1 -104 329 -1 c181 0 329 3 330 7 0 5 1 302 2 661 l2 652 -140 1 c-77 0
-169 1 -205 2 -36 1 -122 1 -191 -1z m261 -222 c22 4 43 3 46 -2 4 -7 6 -181
4 -400 l0 -37 -109 1 -108 1 0 216 1 216 30 5 c17 3 45 3 63 -1 17 -4 50 -3
73 1z"/>
<path d="M5898 5740 l-166 -5 0 -437 0 -438 109 0 c60 0 109 3 110 8 0 4 1
150 1 325 1 175 5 320 10 323 7 5 138 6 191 2 12 -1 17 -10 17 -32 1 -29 1
-440 0 -723 l0 -122 -209 1 c-115 0 -214 -2 -219 -6 -6 -4 -10 -49 -9 -109 l2
-102 1208 -3 1207 -2 0 660 0 660 -37 0 c-56 1 -477 1 -555 0 l-68 0 0 -549 0
-550 -107 2 -108 2 -3 547 -2 546 -63 4 c-34 1 -83 2 -109 0 l-48 -3 0 -549 0
-550 -107 3 -108 2 -2 305 c-1 168 -2 315 -3 328 0 21 -3 22 -110 22 l-110 0
0 -329 0 -329 -109 0 -109 0 0 545 c0 299 -2 546 -5 549 -7 7 -295 10 -489 4z
m1942 -222 l90 3 0 -440 0 -439 -110 0 -110 0 0 438 c0 410 1 439 18 442 9 2
18 1 19 -2 2 -3 43 -4 93 -2z"/>
<path d="M6610 5630 c0 -114 2 -120 45 -110 6 1 47 2 92 2 l81 -1 4 67 c2 37
2 86 0 110 l-3 42 -110 0 -109 0 0 -110z"/>
<path d="M29 4202 c-11 -2 -14 -23 -12 -105 1 -56 2 -105 2 -109 1 -4 297 -7
659 -7 l658 0 1 112 0 112 -647 0 c-355 0 -653 -1 -661 -3z"/>
<path d="M1558 4190 c-2 -8 -3 -58 -3 -110 l0 -95 220 0 220 0 1 103 c0 58 -4
106 -9 109 -6 3 -104 7 -218 7 -177 1 -208 -1 -211 -14z"/>
<path d="M2226 4198 c-8 -5 -12 -38 -11 -110 l0 -103 2840 -2 c1562 -1 2848
-2 2858 -3 15 0 17 -12 17 -108 l0 -109 -3940 1 c-2168 1 -3948 -2 -3957 -5
-14 -5 -16 -41 -16 -330 l0 -324 4067 -2 4066 -1 0 109 c0 97 -2 109 -17 110
-10 0 -1790 1 -3955 1 l-3938 1 -1 51 c0 28 -1 73 -2 99 -1 27 1 53 4 59 4 6
1355 10 3958 11 l3952 2 -1 324 c0 179 -3 327 -5 329 -8 8 -5905 8 -5919 0z"/>
<path d="M2125 2330 c-4 -6 -17 -10 -31 -10 -22 0 -24 -2 -11 -15 12 -12 15
-50 15 -200 0 -132 3 -189 12 -200 13 -16 9 -18 -55 -17 -54 0 -54 0 -48 36 7
46 -27 118 -65 136 -62 28 -148 18 -190 -24 -23 -23 -40 -87 -32 -118 9 -31 8
-31 -50 -29 -51 1 -62 23 -62 116 0 47 4 65 17 78 13 14 8 15 -47 16 -35 0
-57 -3 -51 -7 21 -13 28 -48 25 -116 -3 -60 -6 -68 -30 -79 -64 -31 -102 11
-102 112 0 40 5 65 15 75 13 13 9 15 -39 15 l-53 0 12 -36 c19 -54 10 -144
-16 -164 -37 -27 -83 -12 -98 33 -16 46 -14 128 4 148 15 16 12 17 -41 19 -50
1 -55 -1 -44 -14 8 -10 13 -45 14 -91 0 -98 -8 -106 -109 -108 -42 -1 -80 1
-85 4 -4 3 -7 103 -6 223 l1 218 -35 -5 c-19 -3 -39 -5 -43 -6 -5 0 -1 -7 7
-16 13 -13 16 -46 15 -207 -1 -135 -5 -199 -14 -217 l-13 -25 135 2 c143 2
180 13 190 54 5 16 8 14 27 -13 11 -17 34 -35 50 -39 38 -11 93 12 108 45 l11
26 19 -30 c10 -17 28 -34 40 -39 26 -9 91 3 96 18 2 7 12 5 25 -4 12 -7 49
-15 82 -16 44 -1 69 -8 95 -25 32 -21 71 -29 126 -25 12 0 38 12 58 26 30 20
48 25 99 24 34 -1 76 -1 94 0 31 1 32 2 18 28 -11 20 -13 74 -12 234 2 156 -1
210 -10 213 -7 3 -15 1 -18 -4z m-224 -270 c30 -17 46 -60 44 -120 -3 -97 -38
-135 -103 -118 -46 12 -66 61 -59 142 4 49 10 65 32 83 28 25 55 29 86 13z"/>
<path d="M2277 2326 c-30 -9 -35 -14 -25 -24 9 -9 12 -65 12 -206 0 -158 -3
-198 -16 -218 l-16 -24 52 2 c72 3 72 3 59 12 -21 13 -28 89 -27 285 1 103 1
187 0 186 0 -1 -18 -6 -39 -13z"/>
<path d="M3521 2328 c-26 -7 -31 -12 -20 -18 11 -8 14 -47 14 -214 0 -130 -4
-207 -10 -209 -8 -2 -103 -1 -141 2 -6 1 -14 25 -17 55 -3 30 -13 66 -22 80
-47 71 -167 94 -238 46 -55 -38 -74 -111 -41 -159 20 -28 85 -59 116 -55 13 1
31 3 40 3 9 1 30 12 46 26 36 30 46 32 33 6 -6 -10 -8 -21 -4 -24 3 -4 -2 -26
-11 -50 -36 -95 -151 -98 -191 -4 l-11 28 -11 -35 c-12 -38 -9 -43 37 -63 39
-16 130 -13 165 7 16 9 45 36 64 61 l34 44 421 2 c231 1 427 2 434 2 9 1 9 6
-2 24 -13 18 -15 62 -15 227 0 113 0 210 0 216 -1 8 -12 8 -40 1 -31 -8 -36
-13 -26 -23 9 -9 12 -65 12 -204 1 -151 4 -194 14 -201 15 -9 14 -10 -48 -12
-51 -3 -51 -4 -47 136 l3 107 -27 -4 c-15 -2 -35 -5 -45 -5 -15 -1 -16 -5 -7
-21 6 -12 10 -61 8 -117 l-3 -97 -75 -1 c-104 -2 -111 3 -109 73 3 113 -31
173 -98 175 -59 1 -72 -4 -104 -37 l-34 -33 1 134 c0 74 -2 135 -5 137 -3 2
-21 -1 -40 -6z m194 -243 c14 -13 25 -32 26 -42 0 -10 2 -48 4 -85 3 -47 0
-68 -8 -69 -50 -4 -151 -3 -158 2 -5 3 -7 32 -5 65 2 32 5 67 5 77 1 27 59 77
88 77 13 0 35 -11 48 -25z m-490 -11 c38 -10 65 -106 41 -149 -28 -50 -71 -66
-119 -44 -31 14 -47 49 -47 102 1 57 51 115 88 102 8 -3 24 -8 37 -11z"/>
<path d="M5414 2318 c-3 -4 -3 -12 0 -16 4 -7 10 -326 7 -397 -1 -16 -8 -20
-39 -19 -21 0 -42 3 -47 6 -6 4 -9 55 -8 123 l2 117 -37 -7 c-45 -8 -77 -24
-49 -25 15 0 17 -12 17 -107 l0 -108 -93 1 c-127 2 -121 1 -97 26 52 56 34
164 -35 201 -33 17 -99 26 -112 15 -7 -6 -13 -8 -13 -4 0 16 -63 -28 -80 -57
-32 -52 -25 -114 17 -168 12 -14 2 -15 -95 -13 -59 1 -109 3 -113 3 -3 1 -4
51 -3 112 1 83 5 113 15 120 10 6 3 9 -22 9 -27 0 -41 -6 -52 -22 -15 -22 -16
-22 -29 -5 -29 38 -116 37 -161 -2 -63 -54 -48 -183 24 -222 37 -19 96 -15
130 10 32 24 32 24 26 2 -3 -11 0 -24 5 -28 6 -3 291 -6 632 -6 354 0 629 -3
639 -9 21 -11 21 -9 2 28 -8 16 -19 63 -25 104 -15 101 -26 126 -63 141 -35
15 -124 16 -138 2 -5 -5 0 -21 11 -37 l19 -30 6 27 c12 46 58 45 77 -2 10 -27
12 -38 23 -106 3 -22 12 -49 20 -62 8 -12 11 -23 7 -25 -6 -3 -268 -2 -297 1
-7 1 -10 76 -10 221 l1 220 -29 -2 c-16 -1 -31 -6 -33 -10z m-406 -208 c2 0 9
-15 16 -32 28 -70 12 -187 -26 -189 -10 -1 -29 -1 -43 -1 -50 0 -56 3 -71 37
-16 39 -12 132 8 164 18 29 48 39 83 30 16 -5 31 -9 33 -9z m-458 -40 c29 -41
27 -110 -4 -148 -27 -31 -47 -36 -87 -21 -65 25 -66 162 -1 195 33 16 69 6 92
-26z"/>
<path d="M6378 2305 c-13 -29 3 -55 33 -55 27 0 46 44 29 65 -19 23 -49 18
-62 -10z"/>
<path d="M6488 2319 c-22 -12 -23 -42 -3 -59 35 -29 85 26 53 58 -14 14 -27
15 -50 1z"/>
<path d="M1364 2302 c-20 -14 -23 -40 -5 -56 24 -21 37 -20 55 5 25 36 -14 76
-50 51z"/>
<path d="M4938 2263 c-29 -7 -34 -44 -9 -64 34 -28 70 -2 56 41 -7 21 -22 28
-47 23z"/>
<path d="M5645 2237 c-19 -28 -19 -37 2 -52 26 -20 65 2 61 33 -4 36 -43 48
-63 19z"/>
<path d="M3840 2235 c-26 -32 13 -81 48 -59 34 22 22 74 -18 74 -10 0 -23 -7
-30 -15z"/>
<path d="M3939 2226 c-9 -20 -9 -29 1 -41 28 -34 87 5 64 43 -18 28 -52 27
-65 -2z"/>
<path d="M4398 2233 c-8 -10 -13 -26 -11 -35 5 -19 45 -34 61 -24 17 11 20 46
5 61 -19 20 -37 19 -55 -2z"/>
<path d="M4497 2232 c-21 -23 -21 -27 -1 -46 23 -23 49 -20 62 8 9 20 7 27 -7
40 -23 21 -34 20 -54 -2z"/>
<path d="M7535 2236 c-17 -12 -18 -17 -7 -41 9 -19 18 -25 34 -23 29 4 46 33
32 56 -15 23 -35 26 -59 8z"/>
<path d="M1313 2213 c-15 -6 -17 -49 -3 -58 28 -17 51 -13 62 10 18 39 -15 66
-59 48z"/>
<path d="M1413 2213 c-29 -11 -11 -64 24 -69 20 -3 43 30 36 54 -5 21 -30 28
-60 15z"/>
<path d="M6430 2201 c-36 -8 -75 -37 -88 -65 -5 -13 -9 -47 -7 -76 2 -47 7
-58 39 -87 19 -18 46 -34 58 -34 47 -3 71 1 87 14 34 29 38 27 34 -11 -2 -20
-8 -41 -14 -47 -6 -6 -92 -9 -215 -9 -189 1 -208 3 -232 21 -39 29 -38 77 2
120 17 18 42 34 56 37 37 6 87 -18 96 -46 7 -21 8 -21 15 12 4 19 4 39 -1 44
-18 18 -117 9 -165 -15 -85 -42 -119 -95 -96 -145 22 -49 64 -56 326 -57 254
0 280 4 290 46 3 12 7 80 8 150 2 100 6 130 17 137 11 7 3 10 -27 10 -31 0
-43 -4 -43 -14 0 -22 -17 -28 -32 -12 -25 24 -70 35 -108 27z m96 -50 c13 -13
25 -31 25 -40 5 -64 4 -79 -8 -103 -46 -95 -165 -29 -147 81 14 84 77 113 130
62z"/>
<path d="M578 2135 c-3 -3 -18 -8 -34 -11 -36 -6 -39 -10 -27 -26 6 -7 10 -47
9 -88 -1 -41 4 -86 10 -100 l12 -25 -208 1 c-224 0 -227 1 -256 55 -22 44 -6
129 30 153 51 33 98 21 126 -33 19 -35 21 -33 24 19 2 52 -121 70 -185 27 -62
-42 -77 -150 -27 -197 l21 -19 -33 -31 c-30 -28 -32 -34 -27 -76 8 -77 56
-109 157 -105 46 2 130 33 130 49 0 4 -7 17 -15 28 -13 17 -14 17 -15 2 0 -29
-62 -68 -108 -68 -35 0 -45 5 -66 33 -19 24 -24 41 -21 67 8 66 14 67 294 66
138 -1 251 1 251 4 0 4 -6 12 -12 18 -9 9 -13 51 -14 133 -1 113 -4 136 -16
124z"/>
<path d="M7845 2126 c-25 -7 -34 -14 -25 -17 12 -5 15 -27 17 -110 1 -57 -2
-106 -7 -109 -7 -4 -118 -5 -153 -1 -5 1 -7 55 -5 122 l3 121 -35 -6 c-19 -3
-41 -6 -49 -6 -11 0 -11 -3 0 -16 8 -10 13 -49 14 -115 1 -84 -1 -99 -14 -100
-43 -3 -227 -4 -233 -2 -3 2 0 17 9 33 10 20 13 45 9 73 -15 106 -127 168
-219 121 -38 -20 -46 -30 -40 -54 3 -10 0 -26 -5 -37 -9 -17 -6 -19 29 -20 37
-2 39 0 33 20 -7 24 -7 24 -5 49 2 26 44 50 75 42 53 -13 95 -158 58 -204 -15
-19 -29 -23 -93 -24 -40 -1 -84 1 -95 5 -18 6 -21 4 -17 -12 4 -13 15 -19 37
-20 42 -1 1010 -1 1016 0 3 1 -1 5 -8 10 -9 5 -16 38 -19 97 -6 99 -20 138
-61 157 -53 25 -132 4 -157 -42 l-14 -26 -2 25 c-1 14 -1 33 0 43 1 9 1 17 -1
16 -2 0 -21 -6 -43 -13z m194 -40 c19 -20 24 -38 27 -113 l5 -88 -88 0 -88 1
1 70 c2 80 18 123 54 141 37 19 64 16 89 -11z"/>
<path d="M2881 2123 c-24 -3 -31 -7 -21 -13 10 -6 15 -35 16 -100 1 -53 7 -97
14 -105 15 -18 20 -17 -140 -19 -63 -1 -120 2 -125 5 -6 4 -9 47 -8 99 1 78
-1 91 -14 86 -8 -3 -26 -9 -39 -12 -20 -5 -22 -9 -11 -24 8 -11 11 -49 10
-106 -1 -107 -8 -143 -27 -162 -20 -20 -40 -10 -59 29 l-16 33 -6 -27 c-21
-81 111 -83 149 -2 9 18 16 37 16 42 0 6 74 9 179 9 174 -1 179 0 163 18 -14
15 -17 40 -17 137 0 100 -2 119 -15 117 -8 0 -30 -3 -49 -5z"/>
<path d="M6814 2090 c-153 -33 -128 -239 29 -233 9 0 26 1 36 2 11 1 34 13 51
28 l32 26 -5 -46 c-10 -86 -51 -127 -122 -121 -44 4 -59 15 -75 55 -14 33 -24
29 -34 -12 -5 -21 -1 -28 22 -39 35 -17 138 -21 171 -7 69 29 109 94 107 177
-3 127 -89 196 -212 170z m111 -35 c14 -13 26 -32 26 -42 1 -10 2 -25 3 -33 3
-24 -22 -82 -42 -96 -27 -20 -79 -14 -106 13 -40 40 -39 116 3 165 24 27 86
24 116 -7z"/>
<path d="M809 2075 c-3 -2 -16 -7 -30 -9 -13 -2 -26 -5 -28 -5 -2 -1 2 -8 9
-16 8 -9 12 -49 11 -112 -1 -117 -5 -140 -27 -164 -16 -18 -19 -18 -35 -3 -9
8 -20 28 -24 42 l-7 27 -10 -28 c-12 -34 1 -53 43 -62 32 -7 91 22 105 53 9
22 13 282 4 282 -4 0 -9 -2 -11 -5z"/>
<path d="M402 1818 c-7 -7 -12 -22 -12 -35 0 -31 47 -44 67 -18 17 24 16 30
-3 49 -19 19 -36 20 -52 4z"/>
<path d="M490 1815 c-26 -31 13 -81 47 -59 22 14 25 41 6 59 -18 19 -37 19
-53 0z"/>
<path d="M2753 1823 c-7 -3 -13 -18 -13 -34 0 -23 5 -30 27 -35 19 -5 30 -2
40 11 15 22 16 25 5 43 -9 14 -40 22 -59 15z"/>
<path d="M2840 1816 c-14 -14 -13 -39 2 -54 32 -32 81 8 56 47 -12 20 -41 24
-58 7z"/>
<path d="M5171 1820 c-16 -9 -21 -42 -8 -57 14 -18 48 -16 62 4 12 16 14 16
30 -1 10 -9 27 -16 39 -14 27 4 30 56 3 72 -15 9 -22 7 -38 -13 -19 -23 -20
-23 -33 -6 -15 21 -37 27 -55 15z"/>
<path d="M787 1499 c-12 -7 -16 -17 -12 -30 4 -11 6 -65 5 -122 0 -56 0 -112
0 -124 0 -13 -5 -23 -11 -23 -5 0 -7 -5 -4 -10 4 -6 20 -9 36 -8 24 2 28 5 22
23 -4 11 -7 82 -8 157 -1 76 -3 140 -6 142 -2 3 -12 0 -22 -5z"/>
<path d="M2431 1496 c-15 -9 -20 -16 -12 -20 11 -7 16 -76 6 -76 -4 0 -18 6
-33 13 -29 15 -55 11 -88 -13 -61 -44 -62 -149 -1 -202 25 -23 95 -24 103 -3
8 19 30 19 38 0 3 -8 12 -12 21 -9 8 3 12 11 8 18 -4 6 -8 75 -9 154 -1 78 -3
144 -5 147 -2 2 -15 -2 -28 -9z m-44 -95 c21 -2 45 -60 42 -104 -2 -38 -25
-96 -39 -98 -3 0 -13 -2 -22 -4 -22 -4 -53 23 -63 55 -20 60 15 162 53 155 9
-2 23 -4 29 -4z"/>
<path d="M2765 1497 c-32 -18 -44 -33 -48 -63 -3 -16 -10 -28 -16 -26 -6 1
-11 -5 -11 -14 0 -8 4 -13 9 -10 5 3 11 0 14 -7 6 -15 0 -174 -7 -185 -3 -5
10 -9 29 -9 30 0 33 2 24 19 -6 11 -12 56 -13 100 -2 73 0 81 18 88 20 9 19
11 -6 14 -15 1 -18 46 -5 64 7 8 13 9 22 2 9 -8 14 -5 18 10 7 25 -3 31 -28
17z"/>
<path d="M294 1358 c-1 -79 -4 -150 -7 -158 -6 -12 1 -15 29 -16 25 -1 32 2
25 9 -6 6 -11 42 -11 79 0 100 33 153 80 128 24 -13 33 -61 28 -148 l-3 -67
28 -2 c23 0 27 3 21 16 -3 9 -7 50 -9 91 -1 41 -7 85 -13 97 -20 37 -80 46
-113 17 -8 -8 -17 -14 -20 -14 -2 0 -2 25 -1 55 3 48 2 55 -15 55 -17 0 -19
-10 -19 -142z"/>
<path d="M1026 1474 c-14 -15 -26 -37 -26 -50 0 -16 -6 -24 -17 -24 -16 -1
-15 -2 2 -13 18 -10 20 -21 18 -82 -1 -38 -4 -82 -7 -96 -4 -23 -2 -26 25 -26
26 0 30 3 24 21 -4 12 -9 56 -10 98 -3 70 -2 78 17 84 16 5 17 8 7 14 -7 5
-17 6 -21 4 -9 -6 -4 48 6 65 6 9 11 9 21 1 9 -8 14 -5 18 10 8 29 -24 26 -57
-6z"/>
<path d="M6596 1478 c13 -41 6 -270 -8 -279 -15 -10 -14 -10 30 -14 29 -2 32
0 25 19 -4 12 -7 83 -7 159 -1 137 -1 137 -24 137 -19 0 -22 -4 -16 -22z"/>
<path d="M892 1477 c-13 -15 -3 -33 18 -32 14 0 16 6 12 35 -3 14 -17 12 -30
-3z"/>
<path d="M4846 1481 c-9 -14 3 -38 20 -38 9 0 14 8 12 20 -3 23 -23 33 -32 18z"/>
<path d="M29 1441 c8 -31 6 -200 -3 -234 -5 -23 -3 -25 28 -24 28 1 33 4 27
17 -12 23 -12 101 0 116 17 20 36 6 69 -50 16 -28 33 -57 38 -64 11 -16 59
-25 67 -12 3 5 2 10 -3 10 -5 0 -29 30 -52 66 -34 51 -50 66 -74 71 l-30 6 59
54 c33 29 66 53 73 53 7 0 10 5 7 10 -3 6 -19 10 -36 10 -22 0 -29 -5 -29 -19
0 -10 -23 -39 -51 -65 l-52 -48 5 65 6 66 -28 -1 c-25 -1 -27 -4 -21 -27z"/>
<path d="M1525 1459 c-4 -5 -2 -9 3 -9 10 0 9 -228 -2 -252 -6 -13 -1 -16 28
-15 29 1 35 4 31 18 -3 9 -8 41 -10 72 l-5 56 50 -3 c30 -1 56 -9 68 -20 19
-17 20 -16 17 16 -2 18 -4 39 -4 47 -1 11 -4 11 -14 -3 -9 -12 -28 -18 -63
-19 l-49 -2 -2 53 -1 52 53 0 c37 0 60 -6 78 -20 14 -11 28 -20 31 -20 5 0 0
35 -8 48 -7 11 -195 12 -201 1z"/>
<path d="M3409 1462 c-1 -4 -1 -11 0 -16 8 -41 1 -229 -9 -241 -7 -8 -11 -16
-9 -16 14 -4 212 -3 218 1 4 3 11 18 15 33 l7 28 -28 -20 c-33 -25 -126 -36
-141 -18 -9 10 -16 67 -13 105 1 18 85 16 101 -3 20 -24 30 -17 30 20 0 32
-14 48 -22 26 -1 -6 -27 -12 -55 -13 -56 -4 -55 -6 -55 52 0 58 -1 57 47 54
61 -5 67 -7 90 -27 18 -16 20 -17 23 -2 7 34 -16 43 -109 44 -49 0 -90 -3 -90
-7z"/>
<path d="M3950 1458 c0 -8 -11 -27 -25 -42 -17 -18 -20 -26 -10 -26 16 0 17
-12 15 -121 -1 -70 12 -95 44 -83 12 5 14 10 6 19 -6 7 -12 50 -15 95 -3 75
-2 83 16 87 24 7 25 21 2 19 -13 -1 -18 7 -19 27 -1 28 -14 52 -14 25z"/>
<path d="M5578 1457 c12 -14 11 -233 -1 -258 -7 -14 2 -16 77 -14 121 3 167
39 172 132 6 107 -49 153 -183 153 -59 0 -73 -3 -65 -13z m169 -24 c24 -16 32
-37 34 -88 3 -63 -2 -84 -26 -113 -21 -25 -32 -30 -70 -29 -25 0 -49 5 -52 10
-3 5 -7 61 -8 123 -1 125 -2 124 65 116 18 -2 44 -11 57 -19z"/>
<path d="M8100 1458 c0 -8 -9 -27 -21 -42 -16 -20 -18 -27 -7 -31 10 -4 13
-27 12 -90 -1 -93 2 -104 34 -110 25 -4 26 -2 10 28 -6 12 -12 57 -13 100 -1
71 0 77 18 77 11 0 17 3 13 8 -4 4 -13 7 -19 7 -7 0 -12 12 -12 27 -1 15 -4
30 -8 34 -4 4 -7 0 -7 -8z"/>
<path d="M2104 1420 c-12 -5 -25 -13 -29 -19 -7 -12 -26 -15 -24 -3 3 19 -3
22 -21 12 -12 -7 -18 -16 -13 -23 10 -17 12 -177 1 -183 -18 -11 -6 -20 26
-20 29 1 33 3 25 18 -13 24 -11 139 4 167 19 37 53 45 77 19 16 -18 20 -36 20
-98 0 -46 -5 -81 -12 -88 -7 -7 -8 -12 -2 -13 60 -6 64 -6 59 11 -3 9 -7 53
-9 98 -3 65 -8 85 -25 103 -11 13 -21 20 -21 16 0 -4 -8 -4 -17 1 -10 6 -28 6
-39 2z"/>
<path d="M3137 1406 c-20 -14 -34 -19 -31 -11 7 17 -9 27 -30 19 -11 -4 -13
-11 -7 -22 9 -19 7 -169 -3 -192 -5 -12 2 -15 29 -16 34 -1 45 8 25 21 -16 10
-10 136 6 162 8 13 20 20 28 17 9 -3 17 3 21 16 10 32 2 33 -38 6z"/>
<path d="M3736 1410 c-20 -10 -33 -13 -30 -8 4 6 -4 8 -17 6 -15 -2 -23 -9
-20 -18 6 -23 6 -131 -1 -170 -6 -34 -5 -36 20 -35 18 0 26 5 23 15 -1 8 -3
47 -2 85 2 98 39 145 88 110 15 -11 18 -28 18 -113 l0 -99 27 1 c23 1 27 4 21
21 -3 11 -7 55 -8 97 -2 84 -11 101 -55 116 -22 8 -36 7 -64 -8z"/>
<path d="M4122 1419 c-74 -16 -105 -96 -71 -181 29 -73 131 -77 172 -8 28 47
19 56 -12 13 -36 -50 -64 -58 -97 -30 -25 22 -47 87 -35 104 3 5 24 10 46 10
123 2 116 0 104 30 -10 26 -49 72 -49 57 0 -3 -6 -2 -12 3 -7 5 -28 7 -46 2z
m62 -39 c26 -26 17 -33 -49 -35 -61 -1 -70 10 -34 44 25 23 55 20 83 -9z"/>
<path d="M4345 1402 c-27 -27 -27 -27 -22 -4 4 18 2 22 -10 18 -8 -3 -19 -6
-25 -6 -6 0 -7 -8 -3 -17 12 -33 7 -186 -7 -195 -13 -8 -4 -10 42 -10 32 0 36
2 20 12 -21 13 -17 145 5 170 9 10 23 16 30 14 7 -3 15 4 18 15 8 31 -17 32
-48 3z"/>
<path d="M4527 1422 c-15 -2 -33 -12 -40 -23 -12 -19 -28 -26 -26 -11 4 26 -2
32 -22 22 -13 -8 -17 -15 -11 -23 14 -19 8 -253 -8 -272 -11 -13 -7 -15 31
-15 24 0 39 4 33 8 -6 4 -13 28 -16 54 l-5 47 28 -14 c55 -29 105 -12 134 45
42 82 -17 191 -98 182z m35 -26 c51 -23 47 -170 -5 -193 -16 -8 -29 -8 -43 0
-37 21 -45 40 -41 106 2 51 7 67 25 81 22 18 33 19 64 6z"/>
<path d="M4763 1417 c-13 -5 -23 -14 -23 -19 0 -4 -5 -8 -11 -8 -6 0 -8 7 -5
16 5 12 1 14 -17 8 -27 -8 -35 -16 -22 -20 16 -6 9 -185 -7 -195 -13 -9 -5
-11 42 -11 32 0 36 2 21 11 -20 13 -16 149 5 172 9 10 22 15 29 13 13 -5 29
33 17 40 -4 2 -17 -1 -29 -7z"/>
<path d="M5003 1418 c-41 -11 -65 -43 -56 -77 9 -37 26 -50 69 -55 51 -7 71
-28 57 -59 -6 -14 -23 -27 -37 -29 -28 -6 -86 24 -86 44 0 9 -3 8 -10 -2 -17
-26 -11 -38 21 -49 93 -32 173 17 147 91 -9 25 -36 38 -83 40 -24 0 -45 20
-45 42 0 50 99 55 100 6 1 -11 4 -10 15 4 8 11 11 24 7 28 -16 16 -68 25 -99
16z"/>
<path d="M5222 1413 c-58 -28 -81 -97 -56 -161 19 -46 39 -63 82 -69 31 -4 44
0 69 21 17 14 33 37 35 51 7 35 -4 31 -23 -8 -9 -17 -28 -36 -42 -41 -56 -20
-98 35 -88 114 0 5 25 9 54 9 28 -1 62 -1 75 0 44 2 16 65 -41 89 -33 14 -25
15 -65 -5z m80 -33 c10 -12 16 -25 13 -28 -10 -10 -115 -8 -115 2 0 16 13 31
34 43 27 15 46 10 68 -17z"/>
<path d="M7283 1420 c-12 -5 -26 -17 -32 -27 -10 -17 -12 -16 -15 9 -1 15 -18
20 -35 9 -10 -7 -12 -13 -5 -23 12 -15 11 -164 -1 -190 -6 -15 -2 -18 23 -18
l29 0 -3 76 c-4 82 10 125 46 144 20 11 59 -1 60 -18 1 -4 5 -26 9 -49 5 -24
5 -43 0 -43 -5 0 -5 -10 0 -23 6 -15 4 -34 -5 -55 l-13 -32 32 0 32 0 -2 79
c-2 90 11 137 41 145 30 8 66 -20 67 -52 5 -108 4 -144 -3 -148 -19 -12 -5
-24 28 -24 31 0 35 3 29 18 -4 9 -9 51 -10 92 -1 76 -16 116 -45 125 -55 16
-71 13 -100 -17 -22 -22 -30 -26 -30 -15 0 30 -58 52 -97 37z"/>
<path d="M7923 1419 c-12 -4 -24 -12 -28 -18 -3 -6 -11 -11 -16 -11 -6 0 -7 5
-4 10 3 6 -3 10 -14 10 -22 0 -36 -16 -22 -24 11 -7 8 -166 -3 -184 -4 -8 -1
-12 11 -13 10 0 26 -2 35 -4 14 -3 16 0 8 15 -13 25 -13 119 1 159 14 39 41
56 69 41 30 -16 40 -79 29 -179 -4 -31 -1 -35 21 -36 l25 -2 -3 96 c-2 53 -8
98 -13 99 -5 2 -9 9 -9 16 0 17 -61 35 -87 25z"/>
<path d="M555 1406 c-16 -11 -17 -18 -8 -37 7 -13 12 -18 12 -11 2 32 55 57
85 40 36 -20 37 -85 1 -72 -22 9 -94 -16 -105 -36 -17 -31 -12 -71 12 -91 25
-23 76 -25 105 -4 15 11 22 12 25 3 2 -6 12 -12 22 -14 15 -2 17 2 11 24 -4
15 -6 58 -6 95 0 60 -3 72 -24 93 -28 28 -98 33 -130 10z m117 -134 c-5 -66
-41 -94 -81 -65 -48 33 -13 106 48 101 34 -3 36 -5 33 -36z"/>
<path d="M1137 1409 c-9 -6 -14 -18 -12 -31 5 -26 15 -37 15 -16 0 14 23 29
62 41 27 9 50 -27 50 -80 0 -76 -1 -88 -15 -107 -28 -38 -87 -18 -87 30 0 40
11 54 51 60 53 9 50 27 -3 20 -24 -3 -44 -5 -45 -5 -1 -1 -13 -13 -27 -27 -20
-22 -22 -32 -15 -56 4 -17 16 -36 26 -44 26 -20 80 -17 102 5 18 18 19 18 24
2 2 -10 11 -18 19 -18 11 0 13 17 10 91 -5 118 -19 141 -89 142 -28 1 -57 -3
-66 -7z"/>
<path d="M1790 1410 c-17 -11 -16 -147 1 -192 17 -41 85 -52 119 -18 14 14 20
16 20 6 0 -7 9 -16 21 -19 19 -5 20 -2 15 26 -3 18 -6 71 -7 119 -1 48 -4 86
-8 84 -3 -1 -14 -6 -25 -10 -13 -4 -15 -10 -9 -19 11 -13 9 -119 -2 -153 -4
-12 -17 -26 -30 -32 -19 -9 -28 -7 -46 7 -20 16 -23 28 -24 109 -1 51 -3 94
-6 96 -3 3 -11 1 -19 -4z"/>
<path d="M2869 1404 c-83 -52 -59 -202 37 -220 110 -21 169 121 86 209 -30 32
-81 36 -123 11z m109 -35 c8 -15 11 -47 9 -83 -3 -47 -8 -62 -27 -76 -67 -50
-129 54 -91 153 19 51 83 54 109 6z"/>
<path d="M4850 1409 c-14 -6 -20 -13 -14 -17 11 -8 12 -153 1 -187 -6 -17 -2
-20 28 -22 33 -1 34 -1 24 25 -6 15 -11 69 -10 120 0 50 -1 92 -2 91 -1 0 -13
-5 -27 -10z"/>
<path d="M5924 1409 c-46 -23 -68 -102 -45 -162 28 -72 107 -90 160 -36 17 17
31 40 31 52 0 18 -4 15 -22 -15 -46 -80 -126 -60 -135 33 l-5 44 72 2 c39 1
75 5 80 8 13 8 -15 62 -39 75 -24 12 -69 12 -97 -1z m96 -36 c0 -7 1 -16 3
-20 1 -4 -23 -8 -55 -9 -56 -3 -64 3 -44 34 20 33 96 29 96 -5z"/>
<path d="M6100 1413 c0 -2 8 -18 17 -36 9 -18 31 -68 49 -112 18 -44 35 -79
39 -78 5 1 104 218 105 229 0 1 -14 1 -32 2 -21 0 -28 -2 -19 -8 18 -10 9 -59
-22 -123 l-23 -47 -21 52 c-28 69 -37 100 -35 114 1 6 -11 10 -28 10 -16 0
-30 -1 -30 -3z"/>
<path d="M6381 1396 c-31 -34 -40 -60 -37 -104 4 -48 27 -88 61 -104 30 -13
87 -3 108 20 21 23 39 72 27 72 -6 0 -10 -6 -10 -14 0 -23 -48 -66 -73 -66
-43 0 -69 31 -71 81 l-1 44 55 2 c109 3 102 1 95 26 -4 12 -17 32 -28 45 -28
30 -98 29 -126 -2z m102 -10 c26 -29 16 -41 -39 -42 -63 -1 -67 2 -48 31 24
37 59 41 87 11z"/>
<path d="M6742 1404 c-31 -22 -49 -62 -49 -112 0 -35 5 -50 32 -78 69 -73 175
-22 181 86 5 85 -98 150 -164 104z m106 -32 c19 -29 19 -126 0 -149 -22 -26
-46 -34 -72 -22 -36 17 -53 72 -41 136 13 69 77 89 113 35z"/>
<path d="M7004 1398 c-24 -19 -27 -20 -21 -5 6 15 3 18 -16 15 -14 -2 -21 -9
-18 -18 7 -26 5 -234 -2 -262 -7 -27 -6 -28 29 -28 28 0 34 3 26 13 -10 12
-15 44 -13 81 1 18 2 18 19 3 29 -27 77 -21 114 12 31 27 33 34 33 91 -1 57
-3 65 -33 91 -39 35 -79 37 -118 7z m82 -6 c20 -13 31 -46 31 -92 0 -71 -17
-96 -74 -106 -7 -1 -22 11 -34 27 -42 60 -17 179 39 179 15 0 32 -4 38 -8z"/>
<path d="M7642 1404 c-69 -48 -56 -186 20 -219 51 -21 115 14 133 73 9 31 -2
27 -20 -8 -37 -72 -117 -67 -132 8 -14 73 -21 68 106 71 42 1 43 2 37 27 -15
57 -94 83 -144 48z m103 -40 c0 -15 -9 -18 -47 -19 -58 -2 -70 5 -54 27 31 42
101 37 101 -8z"/>
<path d="M888 1315 c3 -62 0 -100 -8 -109 -13 -16 -5 -21 30 -21 20 0 24 4 21
20 -3 11 -5 62 -5 113 -1 85 -2 92 -21 92 -19 0 -20 -5 -17 -95z"/>
</g>
</svg>
