<?xml version="1.0"?>
<svg xmlns="http://www.w3.org/2000/svg" xmlns:xlink="http://www.w3.org/1999/xlink" version="1.1" id="Capa_1" x="0px" y="0px" viewBox="0 0 480 480" style="enable-background:new 0 0 480 480;" xml:space="preserve" width="512px" height="512px" class=""><g><g>
	<g>
		<path d="M304,16h-96c-8.832,0-16,7.168-16,16c0,8.832,7.168,16,16,16h57.376L68.672,244.672c-6.24,6.24-6.24,16.384,0,22.624    C71.808,270.432,75.904,272,80,272s8.192-1.568,11.328-4.672L288,70.624V128c0,8.832,7.168,16,16,16c8.832,0,16-7.168,16-16V32    C320,23.168,312.832,16,304,16z" data-original="#000000" class="active-path" data-old_color="#000000" fill="#FFFFFF"/>
	</g>
</g><g>
	<g>
		<path d="M464,432h-16V96c0-8.832-7.168-16-16-16h-64c-8.832,0-16,7.168-16,16v336h-64V224c0-8.832-7.168-16-16-16h-64    c-8.832,0-16,7.168-16,16v208h-64v-80c0-8.832-7.168-16-16-16H48c-8.832,0-16,7.168-16,16v80H16c-8.832,0-16,7.168-16,16    c0,8.832,7.168,16,16,16h448c8.832,0,16-7.168,16-16C480,439.168,472.832,432,464,432z" data-original="#000000" class="active-path" data-old_color="#000000" fill="#FFFFFF"/>
	</g>
</g></g> </svg>
