<?xml version="1.0"?>
<svg xmlns="http://www.w3.org/2000/svg" id="Capa_1" enable-background="new 0 0 512 512" height="512px" viewBox="0 0 512 512" width="512px" class=""><g><circle cx="256" cy="50" r="50" data-original="#000000" class="active-path" data-old_color="#000000" fill="#FFFFFF"/><path d="m76 412c27.57 0 50-22.43 50-50 0-22.346-14.736-41.312-35-47.698v-33.302h150v33.302c-20.264 6.387-35 25.352-35 47.698 0 27.57 22.43 50 50 50s50-22.43 50-50c0-22.346-14.736-41.312-35-47.698v-33.302h150v33.302c-20.264 6.387-35 25.352-35 47.698 0 27.57 22.43 50 50 50s50-22.43 50-50c0-22.346-14.736-41.312-35-47.698v-48.302c0-8.284-6.716-15-15-15h-165v-31h55c8.284 0 15-6.716 15-15v-30c0-26.496-12.191-50.193-31.253-65.794-14.213 12.914-33.077 20.794-53.747 20.794s-39.534-7.88-53.747-20.794c-19.062 15.601-31.253 39.298-31.253 65.794v30c0 8.284 6.716 15 15 15h55v31h-165c-8.284 0-15 6.716-15 15v48.302c-20.264 6.386-35 25.352-35 47.698 0 27.57 22.43 50 50 50z" data-original="#000000" class="active-path" data-old_color="#000000" fill="#FFFFFF"/><path d="m487.856 422.845c-13.977 11.929-32.083 19.155-51.856 19.155s-37.879-7.226-51.856-19.155c-14.254 13.652-23.144 32.859-23.144 54.155v20c0 8.284 6.716 15 15 15h120c8.284 0 15-6.716 15-15v-20c0-21.296-8.89-40.503-23.144-54.155z" data-original="#000000" class="active-path" data-old_color="#000000" fill="#FFFFFF"/><path d="m76 442c-19.773 0-37.879-7.226-51.856-19.155-14.254 13.652-23.144 32.859-23.144 54.155v20c0 8.284 6.716 15 15 15h120c8.284 0 15-6.716 15-15v-20c0-21.296-8.89-40.503-23.144-54.155-13.977 11.929-32.083 19.155-51.856 19.155z" data-original="#000000" class="active-path" data-old_color="#000000" fill="#FFFFFF"/><path d="m256 442c-19.773 0-37.879-7.226-51.856-19.155-14.254 13.652-23.144 32.859-23.144 54.155v20c0 8.284 6.716 15 15 15h120c8.284 0 15-6.716 15-15v-20c0-21.296-8.89-40.503-23.144-54.155-13.977 11.929-32.083 19.155-51.856 19.155z" data-original="#000000" class="active-path" data-old_color="#000000" fill="#FFFFFF"/></g> </svg>
