<?xml version="1.0"?>
<svg xmlns="http://www.w3.org/2000/svg" height="512px" viewBox="0 0 448 448" width="512px" class="hovered-paths"><g><path d="m376 304h32v48h-32zm0 0" data-original="#000000" class="hovered-path active-path" data-old_color="#000000" fill="#FFFFFF"/><path d="m256 104h32v48h-32zm0 0" data-original="#000000" class="hovered-path active-path" data-old_color="#000000" fill="#FFFFFF"/><path d="m104 0h240v16h-240zm0 0" data-original="#000000" class="hovered-path active-path" data-old_color="#000000" fill="#FFFFFF"/><path d="m432 128h-80v288h80zm-8 232c0 4.417969-3.582031 8-8 8h-48c-4.417969 0-8-3.582031-8-8v-64c0-4.417969 3.582031-8 8-8h48c4.417969 0 8 3.582031 8 8zm0-112c0 4.417969-3.582031 8-8 8h-48c-4.417969 0-8-3.582031-8-8v-64c0-4.417969 3.582031-8 8-8h48c4.417969 0 8 3.582031 8 8zm0 0" data-original="#000000" class="hovered-path active-path" data-old_color="#000000" fill="#FFFFFF"/><path d="m352 96h96v16h-96zm0 0" data-original="#000000" class="hovered-path active-path" data-old_color="#000000" fill="#FFFFFF"/><path d="m376 192h32v48h-32zm0 0" data-original="#000000" class="hovered-path active-path" data-old_color="#000000" fill="#FFFFFF"/><path d="m0 432h448v16h-448zm0 0" data-original="#000000" class="hovered-path active-path" data-old_color="#000000" fill="#FFFFFF"/><path d="m0 96h96v16h-96zm0 0" data-original="#000000" class="hovered-path active-path" data-old_color="#000000" fill="#FFFFFF"/><path d="m40 192h32v48h-32zm0 0" data-original="#000000" class="hovered-path active-path" data-old_color="#000000" fill="#FFFFFF"/><path d="m40 304h32v48h-32zm0 0" data-original="#000000" class="hovered-path active-path" data-old_color="#000000" fill="#FFFFFF"/><path d="m96 416v-288h-80v288zm-72-232c0-4.417969 3.582031-8 8-8h48c4.417969 0 8 3.582031 8 8v64c0 4.417969-3.582031 8-8 8h-48c-4.417969 0-8-3.582031-8-8zm0 112c0-4.417969 3.582031-8 8-8h48c4.417969 0 8 3.582031 8 8v64c0 4.417969-3.582031 8-8 8h-48c-4.417969 0-8-3.582031-8-8zm0 0" data-original="#000000" class="hovered-path active-path" data-old_color="#000000" fill="#FFFFFF"/><path d="m160 104h32v48h-32zm0 0" data-original="#000000" class="hovered-path active-path" data-old_color="#000000" fill="#FFFFFF"/><path d="m336 416v-360h-224v360h40v-88c0-13.253906 10.746094-24 24-24h96c13.253906 0 24 10.746094 24 24v88zm-96-320c0-4.417969 3.582031-8 8-8h48c4.417969 0 8 3.582031 8 8v64c0 4.417969-3.582031 8-8 8h-48c-4.417969 0-8-3.582031-8-8zm-32 160c0 4.417969-3.582031 8-8 8h-48c-4.417969 0-8-3.582031-8-8v-64c0-4.417969 3.582031-8 8-8h48c4.417969 0 8 3.582031 8 8zm0-96c0 4.417969-3.582031 8-8 8h-48c-4.417969 0-8-3.582031-8-8v-64c0-4.417969 3.582031-8 8-8h48c4.417969 0 8 3.582031 8 8zm40 104c-4.417969 0-8-3.582031-8-8v-64c0-4.417969 3.582031-8 8-8h48c4.417969 0 8 3.582031 8 8v64c0 4.417969-3.582031 8-8 8zm0 0" data-original="#000000" class="hovered-path active-path" data-old_color="#000000" fill="#FFFFFF"/><path d="m232 320v96h48v-88c0-4.417969-3.582031-8-8-8zm24 56h-16v-16h16zm0 0" data-original="#000000" class="hovered-path active-path" data-old_color="#000000" fill="#FFFFFF"/><path d="m256 200h32v48h-32zm0 0" data-original="#000000" class="hovered-path active-path" data-old_color="#000000" fill="#FFFFFF"/><path d="m112 32h224v8h-224zm0 0" data-original="#000000" class="hovered-path active-path" data-old_color="#000000" fill="#FFFFFF"/><path d="m168 328v88h48v-96h-40c-4.417969 0-8 3.582031-8 8zm24 32h16v16h-16zm0 0" data-original="#000000" class="hovered-path active-path" data-old_color="#000000" fill="#FFFFFF"/><path d="m160 200h32v48h-32zm0 0" data-original="#000000" class="hovered-path active-path" data-old_color="#000000" fill="#FFFFFF"/></g> </svg>
